<svg width="24" height="24" viewBox="0 0 24 24" fill="none" xmlns="http://www.w3.org/2000/svg">
<mask id="mask0_13_86" style="mask-type:luminance" maskUnits="userSpaceOnUse" x="0" y="0" width="24" height="24">
<path d="M23.9 0H0V23.9903H23.9V0Z" fill="white"/>
</mask>
<g mask="url(#mask0_13_86)">
<path fill-rule="evenodd" clip-rule="evenodd" d="M11.6397 1.12598C8.61477 1.12598 6.1626 3.58741 6.1626 6.62376C6.1626 9.66011 8.61477 12.1215 11.6397 12.1215C14.6646 12.1215 17.1168 9.66011 17.1168 6.62376C17.1168 3.58741 14.6646 1.12598 11.6397 1.12598ZM8.15426 6.62376C8.15426 4.69154 9.71473 3.12517 11.6397 3.12517C13.5646 3.12517 15.1251 4.69154 15.1251 6.62376C15.1251 8.55598 13.5646 10.1223 11.6397 10.1223C9.71473 10.1223 8.15426 8.55598 8.15426 6.62376Z" fill="#1C274C"/>
<path d="M9.1376 14.126C5.83769 14.126 3.1626 16.8112 3.1626 20.1236V22.1228C3.1626 22.6748 3.60845 23.1224 4.15843 23.1224C4.70841 23.1224 5.15426 22.6748 5.15426 22.1228V20.1236C5.15426 17.9153 6.93766 16.1252 9.1376 16.1252H15.1126C17.3125 16.1252 19.0959 17.9153 19.0959 20.1236V22.1228C19.0959 22.6748 19.5418 23.1224 20.0918 23.1224C20.6418 23.1224 21.0876 22.6748 21.0876 22.1228V20.1236C21.0876 16.8112 18.4125 14.126 15.1126 14.126H9.1376Z" fill="#1C274C"/>
</g>
</svg>
